<?xml version="1.0" encoding="UTF-8" standalone="no"?>
<!-- Created with Inkscape (http://www.inkscape.org/) -->

<svg
   xmlns:dc="http://purl.org/dc/elements/1.1/"
   xmlns:cc="http://creativecommons.org/ns#"
   xmlns:rdf="http://www.w3.org/1999/02/22-rdf-syntax-ns#"
   xmlns:svg="http://www.w3.org/2000/svg"
   xmlns="http://www.w3.org/2000/svg"
   xmlns:sodipodi="http://sodipodi.sourceforge.net/DTD/sodipodi-0.dtd"
   xmlns:inkscape="http://www.inkscape.org/namespaces/inkscape"
   width="1200"
   height="800"
   id="svg2"
   version="1.1"
   inkscape:version="0.48.5 r10040"
   sodipodi:docname="New document 1">
  <defs
     id="defs4" />
  <sodipodi:namedview
     id="base"
     pagecolor="#ffffff"
     bordercolor="#666666"
     borderopacity="1.0"
     inkscape:pageopacity="0.0"
     inkscape:pageshadow="2"
     inkscape:zoom="0.413125"
     inkscape:cx="449.5982"
     inkscape:cy="617.37605"
     inkscape:document-units="px"
     inkscape:current-layer="svg2"
     showgrid="false"
     inkscape:window-width="1536"
     inkscape:window-height="841"
     inkscape:window-x="-8"
     inkscape:window-y="-8"
     inkscape:window-maximized="1"
     inkscape:object-paths="true"
     inkscape:snap-global="true" />
  <metadata
     id="metadata7">
    <rdf:RDF>
      <cc:Work
         rdf:about="">
        <dc:format>image/svg+xml</dc:format>
        <dc:type
           rdf:resource="http://purl.org/dc/dcmitype/StillImage" />
        <dc:title></dc:title>
      </cc:Work>
    </rdf:RDF>
  </metadata>
  <g
     inkscape:label="Layer 1"
     inkscape:groupmode="layer"
     id="layer1"
     transform="translate(0,-252.36218)" />
  <rect
     style="fill:#aa8800;fill-opacity:1;stroke:#000000;stroke-width:1;stroke-linecap:round;stroke-linejoin:round;stroke-miterlimit:4;stroke-opacity:1;stroke-dasharray:none"
     id="rect3008"
     width="125.8699"
     height="53.252647"
     x="1.2102875"
     y="317.09531"
     ry="0" />
  <path
     id="path3786"
     style="fill:#e6e6e6;stroke:#000000;stroke-width:0.86329162px;stroke-linecap:butt;stroke-linejoin:miter;stroke-opacity:1"
     d="m 1112.1145,344.43958 -121.7425,-52.38376 -853.55345,0 0,104.76752 853.55345,0 121.7425,-52.38376"
     inkscape:connector-curvature="0"
     sodipodi:nodetypes="cccccc" />
  <path
     style="fill:#999999;stroke:#000000;stroke-width:1px;stroke-linecap:butt;stroke-linejoin:miter;stroke-opacity:1"
     d="m 1107.5293,346.41251 -963.54196,0 -3.594,50.41083 849.97866,0 z"
     id="path3789"
     inkscape:connector-curvature="0" />
  <path
     d="m 117.89123,343.59309 c 0,42.09508 2.80633,96.81868 72.96481,141.72011 70.15847,44.90142 119.26939,-50.5141 119.26939,-50.5141 L 284.0363,410.04299 c 0,0 -35.78071,69.51682 -86.89602,36.80302 -51.11531,-32.7138 -53.15992,-72.58374 -53.15992,-103.25292 m -26.08913,0 c 0,-42.09508 2.80633,-96.81868 72.96481,-141.72011 70.15847,-44.90142 119.26939,50.5141 119.26939,50.5141 l -26.08913,24.75611 c 0,0 -35.78071,-69.51682 -86.89602,-36.80302 -51.11531,32.7138 -53.15992,72.58374 -53.15992,103.25292"
     style="fill:#aa8800;stroke:#000000;stroke-width:1.37255299000000000px;stroke-linecap:butt;stroke-linejoin:miter;stroke-opacity:1;fill-opacity:1"
     id="path3006"
     inkscape:connector-curvature="0"
     sodipodi:nodetypes="csccsccsccsc" />
  <rect
     style="fill:#aa8800;fill-opacity:1;stroke:#000000;stroke-width:1;stroke-linecap:round;stroke-linejoin:round;stroke-miterlimit:4;stroke-opacity:1;stroke-dasharray:none"
     id="rect3782"
     width="36.308624"
     height="84.720123"
     x="81.733734"
     y="300.15128"
     ry="15.733737" />
  <rect
     style="fill:#aa8800;fill-opacity:1;stroke:#000000;stroke-width:0.83217174;stroke-linecap:round;stroke-linejoin:round;stroke-miterlimit:4;stroke-opacity:1;stroke-dasharray:none"
     id="rect3791"
     width="30.215012"
     height="70.501694"
     x="109.57889"
     y="230.30354"
     ry="13.093171"
     transform="matrix(0.96826178,-0.24993824,0.24993824,0.96826178,0,0)" />
  <rect
     transform="matrix(0.96826178,0.24993824,0.24993824,-0.96826178,0,0)"
     ry="13.093171"
     y="-436.66275"
     x="282.99344"
     height="70.501694"
     width="30.215012"
     id="rect3793"
     style="fill:#aa8800;fill-opacity:1;stroke:#000000;stroke-width:0.83217174;stroke-linecap:round;stroke-linejoin:round;stroke-miterlimit:4;stroke-opacity:1;stroke-dasharray:none" />
  <rect
     style="fill:#aa8800;fill-opacity:1;stroke:#000000;stroke-width:0.83217174;stroke-linecap:round;stroke-linejoin:round;stroke-miterlimit:4;stroke-opacity:1;stroke-dasharray:none"
     id="rect3795"
     width="30.215012"
     height="70.501694"
     x="-144.65511"
     y="-548.302"
     ry="13.093171"
     transform="matrix(-0.96826178,0.24993824,-0.24993824,-0.96826178,0,0)" />
  <rect
     transform="matrix(-0.96826178,-0.24993824,-0.24993824,0.96826178,0,0)"
     ry="13.093171"
     y="116.0181"
     x="-318.63654"
     height="70.501694"
     width="30.215012"
     id="rect3797"
     style="fill:#aa8800;fill-opacity:1;stroke:#000000;stroke-width:0.83217174;stroke-linecap:round;stroke-linejoin:round;stroke-miterlimit:4;stroke-opacity:1;stroke-dasharray:none" />
</svg>
